<svg xmlns="http://www.w3.org/2000/svg" xmlns:xlink="http://www.w3.org/1999/xlink" version="1.1" x="0px" y="0px" viewBox="0 0 100 100" enable-background="new 0 0 100 100" xml:space="preserve"><path d="M9.76,51.346c-4.669,0-8.456,3.786-8.456,8.456v23.789c0,4.67,3.787,8.456,8.456,8.456c4.67,0,8.457-3.786,8.457-8.456  V59.802C18.216,55.132,14.43,51.346,9.76,51.346z"></path><path d="M90.365,51.346c-4.67,0-8.456,3.786-8.456,8.456v23.789c0,4.67,3.786,8.456,8.456,8.456c4.669,0,8.456-3.786,8.456-8.456  V59.802C98.821,55.132,95.034,51.346,90.365,51.346z"></path><path d="M87.418,35.202h-5.33L76.08,11.288c-0.245-0.979-1.125-1.666-2.134-1.666H26.612c-0.996,0-1.868,0.67-2.126,1.631  l-6.422,23.948h-4.959L7.621,43.88l12.73,6.447v11.335c0,1.22,0.987,2.206,2.206,2.206h14.579L21.437,72.48  c-1.068,0.585-1.459,1.926-0.873,2.995c0.401,0.731,1.156,1.146,1.936,1.146c0.359,0,0.722-0.089,1.06-0.273l18.897-10.364v8.232  h15.096v-8.231l18.896,10.363c0.338,0.185,0.701,0.273,1.061,0.273c0.779,0,1.534-0.414,1.936-1.146  c0.587-1.069,0.194-2.41-0.873-2.995l-15.7-8.611h14.697c1.22,0,2.206-0.986,2.206-2.206V50.268l12.613-6.387L87.418,35.202z   M35.382,52.399c-2.968,0-5.374-2.405-5.374-5.375c0-2.967,2.405-5.374,5.374-5.374s5.374,2.407,5.374,5.374  C40.756,49.994,38.351,52.399,35.382,52.399z M64.733,52.399c-2.968,0-5.374-2.405-5.374-5.375c0-2.967,2.406-5.374,5.374-5.374  c2.969,0,5.374,2.407,5.374,5.374C70.107,49.994,67.702,52.399,64.733,52.399z M70.705,35.202L68.191,25.19  c-0.112-0.454-0.521-0.772-0.988-0.772h-4.845c-0.461,0-0.865,0.31-0.985,0.755l-2.688,10.028H41.354L38.84,25.19  c-0.113-0.454-0.521-0.772-0.988-0.772h-4.845c-0.461,0-0.865,0.31-0.985,0.755l-2.688,10.028h-6.711L28.3,14.025H72.23  l5.321,21.177H70.705z"></path></svg>