<svg xmlns="http://www.w3.org/2000/svg" xmlns:xlink="http://www.w3.org/1999/xlink" xmlns:a="http://ns.adobe.com/AdobeSVGViewerExtensions/3.0/" version="1.1" x="0px" y="0px" viewBox="-11 -2 100 100" overflow="visible" enable-background="new -11 -2 100 100" xml:space="preserve"><path d="M68,39.5C68,23.785,55.215,11,39.5,11S11,23.785,11,39.5S23.785,68,39.5,68S68,55.215,68,39.5z M15,39.5  C15,25.991,25.991,15,39.5,15S64,25.991,64,39.5S53.009,64,39.5,64S15,53.009,15,39.5z"></path><path d="M56.5,39.5c0-9.374-7.626-17-17-17s-17,7.626-17,17s7.626,17,17,17S56.5,48.874,56.5,39.5z M26.5,39.5  c0-7.168,5.832-13,13-13s13,5.832,13,13s-5.832,13-13,13S26.5,46.668,26.5,39.5z"></path><path d="M44,39.5c0-2.206-1.794-4-4-4s-4,1.794-4,4s1.794,4,4,4S44,41.706,44,39.5z"></path><path d="M63.702,70.684C73,63.451,79,52.166,79,39.5C79,17.72,61.28,0,39.5,0S0,17.72,0,39.5c0,13.064,6.38,24.663,16.183,31.857  l-4.396,24.924l5.909,1.042L19.693,86h40.702l1.992,11.301l5.908-1.042l-4.512-25.59L63.702,70.684z M4,39.5  C4,19.925,19.925,4,39.5,4S75,19.925,75,39.5S59.075,75,39.5,75S4,59.075,4,39.5z M20.223,83l1.457-8.266  C27.038,77.456,33.09,79,39.5,79c6.809,0,13.221-1.732,18.819-4.778L59.866,83H20.223z"></path><circle cx="46.638" cy="34.866" r="1.028"></circle><circle cx="34.638" cy="29.866" r="1.028"></circle><circle cx="35.638" cy="46.866" r="1.028"></circle><circle cx="22.638" cy="30.866" r="1.028"></circle><circle cx="70.638" cy="46.866" r="1.028"></circle><circle cx="48.638" cy="70.866" r="1.028"></circle><circle cx="61.638" cy="14.866" r="1.028"></circle><circle cx="49.638" cy="9.866" r="1.028"></circle></svg>