<?xml version="1.0" encoding="UTF-8" standalone="no"?>
<!-- Created with Inkscape (http://www.inkscape.org/) -->

<svg
   xmlns:dc="http://purl.org/dc/elements/1.1/"
   xmlns:cc="http://creativecommons.org/ns#"
   xmlns:rdf="http://www.w3.org/1999/02/22-rdf-syntax-ns#"
   xmlns:svg="http://www.w3.org/2000/svg"
   xmlns="http://www.w3.org/2000/svg"
   xmlns:sodipodi="http://sodipodi.sourceforge.net/DTD/sodipodi-0.dtd"
   xmlns:inkscape="http://www.inkscape.org/namespaces/inkscape"
   width="210mm"
   height="297mm"
   viewBox="0 0 744.09448819 1052.3622047"
   id="svg2"
   version="1.1"
   inkscape:version="0.91 r13725"
   sodipodi:docname="gamers-ranch-logo.svg">
  <defs
     id="defs4" />
  <sodipodi:namedview
     id="base"
     pagecolor="#8c8c8c"
     bordercolor="#666666"
     borderopacity="1.0"
     inkscape:pageopacity="0"
     inkscape:pageshadow="2"
     inkscape:zoom="1.4"
     inkscape:cx="220.80932"
     inkscape:cy="595.48474"
     inkscape:document-units="px"
     inkscape:current-layer="layer1"
     showgrid="false"
     inkscape:window-width="2405"
     inkscape:window-height="1491"
     inkscape:window-x="2239"
     inkscape:window-y="392"
     inkscape:window-maximized="0" />
  <metadata
     id="metadata7">
    <rdf:RDF>
      <cc:Work
         rdf:about="">
        <dc:format>image/svg+xml</dc:format>
        <dc:type
           rdf:resource="http://purl.org/dc/dcmitype/StillImage" />
        <dc:title></dc:title>
      </cc:Work>
    </rdf:RDF>
  </metadata>
  <g
     inkscape:label="Layer 1"
     inkscape:groupmode="layer"
     id="layer1">
    <g
       id="g4459"
       inkscape:export-xdpi="24.421146"
       inkscape:export-ydpi="24.421146">
      <g
         inkscape:export-ydpi="29.274433"
         inkscape:export-xdpi="29.274433"
         style="fill:#ffffff"
         transform="matrix(1.0971523,0,0,1.0971523,-291.37412,-4.3052905)"
         id="g4749">
        <path
           id="path3338"
           d="m 173.48641,421.46769 c 0.22911,-5.6983 -12.82493,-8.47269 -13.39057,-9.12218 -0.28184,-0.32308 0.65404,-8.703 -6.42595,-8.69678 -7.07998,-0.006 -6.14449,8.3737 -6.42632,8.69678 -0.56566,0.64949 -13.6189,3.42388 -13.39018,9.12218 0.22833,5.69872 7.1553,2.7719 8.63266,4.44904 1.29225,1.46797 -6.05649,10.86435 -6.87862,16.83107 -0.26796,1.94472 0.25528,2.32207 2.06403,2.32207 3.28055,0 6.41246,-0.002 9.29661,-0.002 1.30294,0 1.76633,-0.78244 2.43862,-1.86063 1.48805,-2.38669 3.28531,-6.22311 4.2632,-6.22271 0.97751,-4e-4 2.77515,3.83602 4.26322,6.22229 0.67228,1.07861 1.13527,1.86065 2.43821,1.86065 2.88377,0 6.01607,0.002 9.29663,0.002 1.80874,0 2.33238,-0.37735 2.06402,-2.32207 -0.82172,-5.96671 -8.17007,-15.3631 -6.87862,-16.83107 1.47736,-1.67672 8.40513,1.2501 8.63306,-4.44862 z"
           inkscape:connector-curvature="0"
           style="clip-rule:evenodd;fill:#ffffff;fill-rule:evenodd" />
        <path
           style="fill:#ffffff"
           id="path3391"
           d="m 215.88699,410.08562 c 0.58805,0.35993 0.77055,1.13724 0.40893,1.7236 -0.23319,0.38527 -0.65057,0.60156 -1.06964,0.60156 -0.22644,0 -0.45287,-0.0676 -0.65227,-0.19264 l -9.84137,-6.06129 0,13.70255 c 0.64382,-0.22474 1.28763,-0.44272 1.93145,-0.63367 l 0.71985,2.39106 c -2.6834,0.83645 -5.40904,1.92298 -8.15158,3.19371 l -1.03753,-2.26601 c 1.4059,-0.66071 2.81013,-1.26228 4.2059,-1.81484 -0.10646,-0.1825 -0.17574,-0.40049 -0.17574,-0.63368 l 0,-13.93912 -9.84137,6.06129 c -0.5948,0.36838 -1.36366,0.18251 -1.73035,-0.40892 -0.18249,-0.30247 -0.22643,-0.64381 -0.14194,-0.9615 0.0744,-0.30923 0.26699,-0.58636 0.55256,-0.7604 l 11.1611,-6.8724 0,-2.58201 -8.1634,5.18092 c -0.58636,0.36837 -1.35353,0.19093 -1.72867,-0.39204 -0.37005,-0.58636 -0.19263,-1.35522 0.39204,-1.73036 l 9.49834,-6.02749 0,-2.54315 -6.46347,4.28026 c -0.57791,0.37851 -1.35521,0.21798 -1.7388,-0.35824 -0.38527,-0.5779 -0.22643,-1.35521 0.35148,-1.73879 l 7.85079,-5.19275 0,-2.47386 -4.76522,3.34411 c -0.56946,0.39203 -1.34677,0.25853 -1.74894,-0.30924 -0.39203,-0.56945 -0.25854,-1.34677 0.31092,-1.74894 l 6.20493,-4.3546 0,-2.36571 -3.05346,2.34205 c -0.54242,0.42583 -1.33662,0.32444 -1.7557,-0.22643 -0.41738,-0.55256 -0.31768,-1.33831 0.23489,-1.76584 l 4.57427,-3.5097 0,-1.10343 -1.30283,1.16933 c -0.51201,0.46807 -1.30452,0.42583 -1.76584,-0.0929 -0.46638,-0.51032 -0.42583,-1.30283 0.093,-1.77259 l 3.38634,-3.05346 c 0.008,-0.007 0.0169,-0.007 0.0254,-0.0152 0.10815,-0.0946 0.22644,-0.16899 0.35993,-0.21799 0.0169,-0.0102 0.0338,-0.0102 0.0405,-0.0186 0.13518,-0.0405 0.26867,-0.0743 0.41062,-0.0743 0.008,0 0.008,0 0.008,0 0.14195,0 0.27544,0.0338 0.40893,0.0743 0.0169,0.009 0.0253,0.009 0.0405,0.0186 0.13349,0.049 0.25008,0.12336 0.36161,0.21799 0.009,0.008 0.0152,0.008 0.0237,0.0152 l 3.39649,3.05346 c 0.51031,0.46807 0.55256,1.26227 0.0912,1.77259 -0.25009,0.27544 -0.59311,0.41738 -0.93615,0.41738 -0.30247,0 -0.5948,-0.10645 -0.83644,-0.32444 l -1.29608,-1.16933 0,1.10343 4.57428,3.5097 c 0.54242,0.42753 0.65227,1.21328 0.22644,1.76584 -0.24334,0.31768 -0.62016,0.48497 -0.9953,0.48497 -0.26698,0 -0.53565,-0.0845 -0.76209,-0.25854 l -3.04333,-2.34205 0,2.36571 6.19649,4.3546 c 0.56777,0.40217 0.7114,1.17949 0.30923,1.74894 -0.24333,0.34979 -0.63537,0.53398 -1.02739,0.53398 -0.2501,0 -0.50188,-0.076 -0.71986,-0.22644 l -4.75678,-3.3441 0,2.47386 7.84404,5.19275 c 0.5779,0.38527 0.73675,1.16258 0.35148,1.73879 -0.23657,0.36669 -0.63537,0.55933 -1.0443,0.55933 -0.23488,0 -0.47821,-0.0659 -0.68606,-0.20109 l -6.46346,-4.28026 0,2.54314 9.49833,6.02751 c 0.58636,0.37682 0.75197,1.14568 0.38528,1.73035 -0.24333,0.37682 -0.64381,0.58466 -1.06119,0.58466 -0.22644,0 -0.45963,-0.0659 -0.66916,-0.19093 l -8.15326,-5.18261 0,2.58201 11.14927,6.87239 z"
           inkscape:connector-curvature="0" />
        <path
           style="fill:#ffffff"
           id="path3393"
           d="m 204.71575,363.23773 c 0.35993,0.35993 0.46638,0.8939 0.27544,1.36198 -2.89294,7.11742 -9.73322,11.71704 -17.40827,11.71704 -10.36184,0 -18.78884,-8.42871 -18.78884,-18.79728 0,-7.67675 4.59962,-14.50859 11.71535,-17.40152 0.46638,-0.19095 1.00373,-0.0828 1.36366,0.26699 0.34979,0.35992 0.45794,0.89559 0.26699,1.36366 -0.7959,1.96523 -1.19638,4.02171 -1.19638,6.12889 0,8.98126 7.29992,16.28963 16.28119,16.28963 2.10549,0 4.1721,-0.40048 6.13734,-1.20314 0.46807,-0.19601 1.00204,-0.0862 1.35352,0.27375 z m -3.361,2.97404 c -1.34677,0.31093 -2.73409,0.45963 -4.12986,0.45963 -10.36014,0 -18.78884,-8.42701 -18.78884,-18.79729 0,-1.39577 0.15039,-2.77633 0.45793,-4.12986 -4.68918,2.95207 -7.59056,8.09412 -7.59056,13.77184 0,8.97957 7.29823,16.28963 16.28118,16.28963 5.67602,0.002 10.82821,-2.90138 13.77015,-7.59395 z"
           inkscape:connector-curvature="0" />
        <path
           style="fill:#ffffff"
           id="path3395"
           d="m 141.43459,313.36849 c 46.31561,0 83.99298,37.68581 83.99298,84.00142 0,46.31223 -37.67737,83.99129 -83.99298,83.99129 -46.313909,0 -83.999733,-37.67906 -83.999733,-83.99129 0,-46.31561 37.685824,-84.00142 83.999733,-84.00142 z m 79.05033,103.80075 c 1.58841,-6.34686 2.43331,-12.97931 2.43331,-19.79933 0,-44.93673 -36.55704,-81.49377 -81.48533,-81.49377 -44.933345,0 -81.490386,36.55704 -81.490386,81.49377 0,5.88557 0.63536,11.62917 1.823286,17.16495 0.0084,0 0.0084,0 0.0169,0 5.385381,0.96994 10.701474,3.46239 16.03616,6.90619 l 0,-14.10641 -8.151571,5.1826 c -0.584672,0.37007 -1.363666,0.19264 -1.730353,-0.39203 -0.376826,-0.58467 -0.199397,-1.35353 0.385275,-1.72866 l 9.498339,-6.0275 0,-2.54483 -6.465159,4.28194 c -0.576217,0.37682 -1.355216,0.21798 -1.738796,-0.35824 -0.383585,-0.5796 -0.224744,-1.35522 0.351473,-1.74049 l 7.850792,-5.19105 0,-2.47555 -4.765222,3.34411 c -0.569464,0.39203 -1.346768,0.25853 -1.747251,-0.31093 -0.392029,-0.56777 -0.258534,-1.34677 0.310924,-1.74725 l 6.203239,-4.35629 0,-2.36571 -3.043318,2.34205 c -0.550876,0.42752 -1.338319,0.32613 -1.764149,-0.22643 -0.417382,-0.55088 -0.317684,-1.33663 0.234882,-1.75401 l 4.572585,-3.52153 0,-1.10344 -1.296073,1.17103 c -0.520453,0.46639 -1.311282,0.42583 -1.774282,-0.0929 -0.466386,-0.51031 -0.425831,-1.30284 0.09293,-1.77259 l 3.386355,-3.05347 c 0.0085,-0.008 0.02706,-0.008 0.03548,-0.0169 0.0997,-0.0913 0.216295,-0.16728 0.349783,-0.21798 0.0169,-0.008 0.03548,-0.008 0.0507,-0.0169 0.125045,-0.0405 0.25854,-0.0743 0.408932,-0.0743 0.141944,0 0.285577,0.0338 0.408933,0.0743 0.01858,0.009 0.03548,0.009 0.04221,0.0169 0.133494,0.0507 0.250085,0.12673 0.359922,0.21798 0.0067,0.009 0.0169,0.009 0.02538,0.0169 l 3.394803,3.05347 c 0.512005,0.46807 0.55256,1.26228 0.09294,1.77259 -0.250091,0.27544 -0.594811,0.41738 -0.936152,0.41738 -0.29402,0 -0.594805,-0.10815 -0.836446,-0.32444 l -1.297764,-1.17103 0,1.10344 4.574278,3.52153 c 0.550876,0.41738 0.652264,1.20313 0.226434,1.75401 -0.243332,0.31769 -0.618462,0.48666 -0.995289,0.48666 -0.266992,0 -0.533981,-0.0845 -0.762098,-0.26023 l -3.043325,-2.34205 0,2.36571 6.204933,4.35629 c 0.561009,0.40048 0.70295,1.17948 0.300785,1.74725 -0.241642,0.35148 -0.625227,0.53566 -1.027395,0.53566 -0.243332,0 -0.493423,-0.076 -0.718167,-0.22643 l -4.758466,-3.34411 0,2.47556 7.844035,5.19105 c 0.577905,0.38696 0.736749,1.16258 0.359923,1.74049 -0.24164,0.36668 -0.643812,0.56777 -1.052745,0.56777 -0.234885,0 -0.476519,-0.076 -0.68605,-0.20954 l -6.463473,-4.28193 0,2.54483 9.500026,6.0275 c 0.584674,0.37682 0.758728,1.14568 0.385275,1.72867 -0.234879,0.37681 -0.643805,0.58635 -1.062879,0.58635 -0.226431,0 -0.457936,-0.0592 -0.669164,-0.19264 l -8.156638,-5.1826 0,8.99816 c 0,0.049 0,0.0997 0,0.15039 l 0,6.13734 c 0,0.15884 -0.03379,0.30923 -0.09125,0.45118 3.896672,2.71718 7.800101,5.89569 11.739012,9.32428 0.125037,-0.0405 0.250088,-0.0659 0.385268,-0.0659 l 74.685589,0 c 0.69282,0 1.25383,0.55932 1.25383,1.25383 0,0.69282 -0.56101,1.25383 -1.25383,1.25383 l -72.302973,0 c 2.492443,2.21701 4.991655,4.50499 7.524663,6.83015 0.779,0.71141 1.56475,1.43125 2.3505,2.14773 0.0929,-0.0254 0.18419,-0.0338 0.28389,-0.0338 l 39.01737,0 c 0.69282,0 1.25383,0.56101 1.25383,1.25383 0,0.6945 -0.56101,1.25383 -1.25383,1.25383 l -36.58406,0 c 4.66552,4.21604 9.39019,8.3442 14.18921,12.02458 4.83282,3.69558 9.74167,6.93323 14.72488,9.3074 0.94628,-0.70296 1.91622,-1.43126 2.90306,-2.18322 l 1.47857,2.00748 c -5.7115,4.38163 -10.862,7.87613 -15.29433,9.80926 5.20964,1.0443 10.58657,1.59516 16.0953,1.59516 37.20084,0 68.66653,-25.05966 78.38286,-59.1817 -4.00482,-0.0929 -8.16847,0.62691 -12.43352,1.94833 l -0.71985,-2.39106 c 4.72467,-1.47181 9.36653,-2.24235 13.82253,-2.05649 z m -99.81115,59.00767 c 3.62799,-0.75196 8.11947,-3.27651 13.26152,-6.8893 -11.61228,-5.86189 -22.65847,-15.97026 -33.36164,-25.77107 -13.219277,-12.10738 -25.722076,-23.56251 -38.180932,-26.2966 7.215425,28.70456 29.701536,51.41541 58.281052,58.95697 z"
           inkscape:connector-curvature="0" />
        <path
           style="fill:#ffffff"
           id="path3397"
           d="m 198.19313,422.54449 1.03755,2.26601 c -15.10171,7.0228 -30.84553,20.00212 -44.35883,31.15646 -5.02714,4.14 -9.80081,8.07722 -14.23991,11.48047 l -1.47857,-2.00748 c 2.95038,-2.26602 6.06974,-4.78212 9.31247,-7.45031 l -24.93294,0 c -0.51877,0 -0.96994,-0.31768 -1.15413,-0.76885 -0.0676,-0.1504 -0.10138,-0.30924 -0.10138,-0.48498 0,-0.6945 0.55932,-1.25383 1.25382,-1.25383 l 27.98809,0 c 0.58636,-0.48497 1.16257,-0.96149 1.7557,-1.44477 0.80433,-0.66916 1.62389,-1.33832 2.4502,-2.01593 l -14.04559,0 c -0.6945,0 -1.25382,-0.56777 -1.25382,-1.25383 0,-0.6945 0.55932,-1.25383 1.25382,-1.25383 l 16.71547,0 c 0.11659,0 0.22474,0.0186 0.32443,0.0422 6.08834,-4.9832 12.52477,-10.1168 19.10653,-14.79247 -0.30248,-0.22474 -0.50188,-0.58635 -0.50188,-0.99528 l 0,-21.13935 -8.15326,5.17585 c -0.58467,0.37682 -1.36198,0.20108 -1.72866,-0.38528 -0.37682,-0.58635 -0.20109,-1.35521 0.38527,-1.73035 l 9.49834,-6.02749 0,-2.54314 -6.46684,4.27179 c -0.57791,0.38697 -1.35353,0.22813 -1.7388,-0.34979 -0.38528,-0.5779 -0.22644,-1.35521 0.35148,-1.73879 l 7.85078,-5.19274 0,-2.47556 -4.76522,3.33566 c -0.55932,0.40048 -1.34677,0.26699 -1.7388,-0.30078 -0.40217,-0.56947 -0.26867,-1.35522 0.30078,-1.74894 l 6.20493,-4.3546 0,-2.36572 -3.04332,2.34206 c -0.55256,0.41738 -1.33831,0.31768 -1.76584,-0.22643 -0.41737,-0.55257 -0.31767,-1.33832 0.23489,-1.76415 l 4.57427,-3.51309 0,-1.10174 -1.29607,1.16934 c -0.51876,0.45963 -1.31297,0.42752 -1.77259,-0.0929 -0.46808,-0.51877 -0.42753,-1.30283 0.0929,-1.7726 l 3.3948,-3.05177 c 0,-0.0102 0.0152,-0.0186 0.0236,-0.0186 0.10308,-0.0913 0.22812,-0.16729 0.35316,-0.21629 0.0169,-0.009 0.0338,-0.009 0.049,-0.0169 0.12505,-0.0422 0.25854,-0.076 0.40893,-0.076 0.14194,0 0.28388,0.0338 0.41062,0.076 0.0169,0.009 0.0338,0.009 0.049,0.0169 0.12505,0.049 0.2501,0.12504 0.35149,0.21629 0.008,0 0.0169,0.008 0.0253,0.0186 l 3.39479,3.05177 c 0.51878,0.46807 0.55088,1.25383 0.093,1.7726 -0.2501,0.27544 -0.58637,0.41062 -0.92939,0.41062 -0.30079,0 -0.59988,-0.10139 -0.84491,-0.31768 l -1.29607,-1.16934 0,1.10174 4.57428,3.51309 c 0.55087,0.42583 0.65395,1.21158 0.23488,1.76415 -0.25009,0.31768 -0.62691,0.48497 -1.00543,0.48497 -0.25685,0 -0.53228,-0.0845 -0.75872,-0.25854 l -3.04501,-2.34206 0,2.36572 6.20493,4.3546 c 0.56947,0.39372 0.70296,1.17947 0.30248,1.74894 -0.24502,0.34134 -0.62861,0.53397 -1.02909,0.53397 -0.24164,0 -0.49342,-0.076 -0.71985,-0.23488 l -4.75678,-3.33734 0,2.47555 7.84404,5.19274 c 0.46807,0.31768 0.6607,0.8939 0.51032,1.40422 -0.0338,0.1166 -0.0828,0.22643 -0.15039,0.33457 -0.24334,0.3667 -0.64551,0.56102 -1.05444,0.56102 -0.23319,0 -0.47483,-0.0676 -0.68437,-0.21123 l -6.46347,-4.27179 0,2.54314 9.49835,6.0275 c 0.58804,0.37682 0.76209,1.14568 0.38527,1.73034 -0.23488,0.37683 -0.64382,0.58637 -1.0612,0.58637 -0.22643,0 -0.45961,-0.0676 -0.66915,-0.20109 l -8.15327,-5.17585 0,20.73211 c 6.07482,-4.21435 12.24595,-7.97753 18.35794,-10.813 z"
           inkscape:connector-curvature="0" />
        <path
           style="fill:#ffffff"
           id="path3433"
           d="m 146.56988,360.46984 c 1.62052,0 1.62052,2.50767 0,2.50767 -1.61544,0 -1.61544,-2.50767 0,-2.50767 z"
           inkscape:connector-curvature="0" />
        <path
           style="fill:#ffffff"
           id="path3437"
           d="m 145.03048,372.91857 c 0.64381,0.25854 0.9615,0.98684 0.70296,1.63065 -0.20109,0.49343 -0.66916,0.78744 -1.17104,0.78744 -0.15038,0 -0.30923,-0.027 -0.46638,-0.0929 l -9.3564,-3.76994 c -0.6455,-0.25177 -0.95304,-0.98683 -0.6945,-1.63065 0.26023,-0.63705 0.98684,-0.95304 1.63234,-0.6945 l 9.35302,3.76993 z"
           inkscape:connector-curvature="0" />
        <path
           style="fill:#ffffff"
           id="path3439"
           d="m 145.4749,348.39625 c 0.26699,0.64382 -0.0254,1.37888 -0.66916,1.64756 l -9.28036,3.95581 c -0.16053,0.0659 -0.32613,0.0997 -0.49342,0.0997 -0.48497,0 -0.95305,-0.28389 -1.15413,-0.76041 -0.26698,-0.63536 0.0253,-1.37212 0.66071,-1.64755 l 9.28881,-3.95581 c 0.63536,-0.26868 1.37042,0.0237 1.64755,0.6607 z"
           inkscape:connector-curvature="0" />
        <path
           style="fill:#ffffff"
           id="path3441"
           d="m 142.43834,360.60334 c 0.6945,0.008 1.25382,0.56777 1.25382,1.26228 -0.008,0.69282 -0.56777,1.24538 -1.25382,1.24538 l -0.008,0 -4.95787,-0.009 c -0.69282,0 -1.25383,-0.56945 -1.25383,-1.25383 0.009,-0.6945 0.56947,-1.25551 1.25383,-1.25551 0.009,0 0.009,0 0.009,0 l 4.95786,0.0102 z"
           inkscape:connector-curvature="0" />
        <path
           style="fill:#ffffff"
           id="path3447"
           d="m 137.0631,337.50721 c 1.62051,0 1.62051,2.50766 0,2.50766 -1.61545,0.002 -1.61545,-2.50766 0,-2.50766 z"
           inkscape:connector-curvature="0" />
        <path
           style="fill:#ffffff"
           id="path3449"
           d="m 137.0631,383.42234 c 1.61206,0 1.61206,2.50766 0,2.50766 -1.61545,0 -1.61545,-2.50766 0,-2.50766 z"
           inkscape:connector-curvature="0" />
        <path
           style="fill:#ffffff"
           id="path3453"
           d="m 135.05562,340.87667 c 0.48665,0.48497 0.48665,1.27917 -0.008,1.7726 l -3.5114,3.49618 c -0.25009,0.24164 -0.56777,0.36669 -0.88545,0.36669 -0.32613,0 -0.64381,-0.12505 -0.8939,-0.36669 -0.48498,-0.49342 -0.48498,-1.28932 0.008,-1.77429 l 3.51985,-3.50294 c 0.48328,-0.48497 1.27917,-0.48497 1.77091,0.008 z"
           inkscape:connector-curvature="0" />
        <path
           style="fill:#ffffff"
           id="path3455"
           d="m 134.94578,381.03973 c 0.49342,0.49173 0.48497,1.28762 0,1.77259 -0.2484,0.24334 -0.56777,0.36669 -0.88545,0.36669 -0.32444,0 -0.64382,-0.12335 -0.88377,-0.36669 l -3.50463,-3.52153 c -0.48498,-0.49341 -0.48498,-1.28762 0.008,-1.77259 0.49342,-0.48497 1.28931,-0.48497 1.7726,0.009 l 3.4928,3.51309 z"
           inkscape:connector-curvature="0" />
        <path
           style="fill:#ffffff"
           id="path3461"
           d="m 128.08183,391.58236 c 0.26867,0.63537 -0.0254,1.37212 -0.66071,1.64756 -0.15884,0.0659 -0.32444,0.10138 -0.49173,0.10138 -0.48666,0 -0.95305,-0.28557 -1.15582,-0.76041 l -3.95581,-9.29049 c -0.26699,-0.63537 0.0254,-1.37211 0.6624,-1.64755 0.63367,-0.267 1.37887,0.0253 1.64755,0.6624 l 3.95412,9.28711 z"
           inkscape:connector-curvature="0" />
        <path
           style="fill:#ffffff"
           id="path3463"
           d="m 127.31298,348.5044 c 3.40493,3.40325 5.51041,8.10089 5.51041,13.28517 0,10.36014 -8.42701,18.79729 -18.79559,18.79729 -5.17415,0 -9.87517,-2.10717 -13.27841,-5.51042 -3.40325,-3.41339 -5.510426,-8.11271 -5.510426,-13.28687 0,-10.36857 8.427006,-18.79728 18.788836,-18.79728 5.18261,0 9.88193,2.10718 13.28518,5.51211 z m 3.00107,13.28517 c 0,-8.97957 -7.30668,-16.28962 -16.28794,-16.28962 -8.98126,0 -16.28118,7.30837 -16.28118,16.28962 0,8.98127 7.29823,16.28964 16.28118,16.28964 8.98126,0 16.28794,-7.30837 16.28794,-16.28964 z"
           inkscape:connector-curvature="0" />
        <path
           style="fill:#ffffff"
           id="path3465"
           d="m 126.7942,330.0907 c 0.64382,0.25855 0.95305,0.98684 0.69451,1.63066 l -3.76993,9.36484 c -0.19264,0.48498 -0.66916,0.78575 -1.16258,0.78575 -0.15884,0 -0.31768,-0.0338 -0.46808,-0.0912 -0.6438,-0.26023 -0.95135,-0.98684 -0.69281,-1.63234 l 3.76994,-9.36485 c 0.25684,-0.64212 0.98515,-0.95136 1.62895,-0.69282 z"
           inkscape:connector-curvature="0" />
        <path
           style="fill:#ffffff"
           id="path3473"
           d="m 114.10891,332.13197 c 0.6945,0.008 1.25552,0.56946 1.24539,1.26228 l -0.009,4.95955 c 0,0.69451 -0.56101,1.25383 -1.25383,1.25383 -0.69451,-0.008 -1.25382,-0.56946 -1.25382,-1.26228 l 0.008,-4.95955 c 0.009,-0.69281 0.56946,-1.25383 1.25383,-1.25383 0.009,0 0.009,0 0.009,0 z"
           inkscape:connector-curvature="0" />
        <path
           style="fill:#ffffff"
           id="path3475"
           d="m 115.2208,385.23549 -0.009,4.95955 c -0.008,0.68437 -0.56946,1.24538 -1.25383,1.24538 -0.008,0 -0.008,0 -0.008,0 -0.69451,0 -1.25382,-0.56101 -1.24538,-1.25383 l 0.009,-4.95955 c 0,-0.6945 0.56945,-1.25383 1.25383,-1.25383 0,0 0,0 0.008,0 0.68605,0 1.24538,0.56777 1.24538,1.26228 z"
           inkscape:connector-curvature="0" />
        <path
           style="fill:#ffffff"
           id="path3477"
           d="m 114.10047,328.00043 c 1.6222,0 1.6222,2.50765 0,2.50765 -1.61207,0.002 -1.61207,-2.50765 0,-2.50765 z"
           inkscape:connector-curvature="0" />
        <path
           style="fill:#ffffff"
           id="path3479"
           d="m 114.10047,392.93758 c 1.6222,0 1.6222,2.50765 0,2.50765 -1.61207,0 -1.61207,-2.50765 0,-2.50765 z"
           inkscape:connector-curvature="0" />
        <path
           style="fill:#ffffff"
           id="path3481"
           d="m 105.97423,381.80014 c 0.64551,0.25685 0.95305,0.98684 0.69451,1.63065 l -3.76993,9.36484 c -0.19264,0.48329 -0.66916,0.78576 -1.16258,0.78576 -0.15884,0 -0.31768,-0.0338 -0.46808,-0.0912 -0.64381,-0.26023 -0.95135,-0.98685 -0.69281,-1.63235 l 3.76994,-9.36485 c 0.25684,-0.64381 0.98514,-0.95304 1.62895,-0.69281 z"
           inkscape:connector-curvature="0" />
        <path
           style="fill:#ffffff"
           id="path3483"
           d="m 106.24123,340.30045 c 0.26698,0.63536 -0.0254,1.37043 -0.66071,1.6391 -0.16729,0.0743 -0.33459,0.10138 -0.49342,0.10138 -0.48498,0 -0.95136,-0.28556 -1.15583,-0.7604 l -3.95412,-9.28205 c -0.27544,-0.64381 0.0253,-1.37887 0.6624,-1.64755 0.63367,-0.27713 1.37042,0.0253 1.64586,0.66071 l 3.95582,9.28881 z"
           inkscape:connector-curvature="0" />
        <path
           style="fill:#ffffff"
           id="path3485"
           d="m 98.388742,344.29006 c 0.484974,0.48497 0.484974,1.27917 -0.0085,1.77259 -0.241633,0.24333 -0.561008,0.36838 -0.885451,0.36838 -0.317682,0 -0.643805,-0.12505 -0.885452,-0.37683 l -3.494492,-3.51139 c -0.493422,-0.49343 -0.493422,-1.28931 0,-1.77429 0.493416,-0.49341 1.28931,-0.48497 1.772591,0 l 3.501253,3.52154 z"
           inkscape:connector-curvature="0" />
        <path
           style="fill:#ffffff"
           id="path3487"
           d="m 98.299178,377.4354 c 0.491735,0.49173 0.483287,1.28762 0,1.77259 l -3.52153,3.50295 c -0.241634,0.24333 -0.561009,0.35993 -0.885452,0.35993 -0.317682,0 -0.643812,-0.1166 -0.885452,-0.36838 -0.484974,-0.49342 -0.484974,-1.28932 0.0085,-1.77429 l 3.511395,-3.4928 c 0.493422,-0.49342 1.285936,-0.49342 1.77259,0 z"
           inkscape:connector-curvature="0" />
        <path
           style="fill:#ffffff"
           id="path3491"
           d="m 94.182846,370.24362 c 0.268679,0.63537 -0.0253,1.37212 -0.660715,1.63911 l -9.288805,3.95581 c -0.160531,0.0743 -0.326135,0.0997 -0.493426,0.0997 -0.484967,0 -0.946284,-0.28388 -1.15413,-0.7604 -0.268678,-0.63537 0.02538,-1.37042 0.669163,-1.64755 l 9.28036,-3.95412 c 0.635363,-0.26868 1.380561,0.0236 1.647553,0.66746 z"
           inkscape:connector-curvature="0" />
        <path
           style="fill:#ffffff"
           id="path3493"
           d="m 93.322739,352.0986 c 0.643811,0.25854 0.951351,0.98684 0.692814,1.63066 -0.19095,0.49341 -0.660715,0.78744 -1.162579,0.78744 -0.160531,0 -0.310927,-0.0254 -0.468077,-0.0929 l -9.364847,-3.76318 c -0.635366,-0.25853 -0.953043,-0.99529 -0.69282,-1.6391 0.25854,-0.63536 0.993605,-0.95304 1.630655,-0.69451 l 9.364854,3.77163 z"
           inkscape:connector-curvature="0" />
        <path
           style="fill:#ffffff"
           id="path3495"
           d="m 91.14797,337.50721 c 1.613753,0 1.613753,2.50766 0,2.50766 -1.620515,0.002 -1.620515,-2.50766 0,-2.50766 z"
           inkscape:connector-curvature="0" />
        <path
           style="fill:#ffffff"
           id="path3497"
           d="m 91.14797,383.42234 c 1.613753,0 1.613753,2.50766 0,2.50766 -1.613753,0 -1.613753,-2.50766 0,-2.50766 z"
           inkscape:connector-curvature="0" />
        <path
           style="fill:#ffffff"
           id="path3499"
           d="m 90.595409,360.47829 c 0.686053,0 1.245375,0.55933 1.245375,1.25383 0,0.69282 -0.559322,1.25383 -1.253823,1.25383 l -4.957863,-0.0169 c -0.692819,0 -1.253828,-0.56101 -1.253828,-1.25383 0,-0.69451 0.561009,-1.25551 1.253828,-1.25551 l 4.966311,0.0186 z"
           inkscape:connector-curvature="0" />
        <path
           style="fill:#ffffff"
           id="path3503"
           d="m 81.641176,360.46984 c 1.613757,0 1.613757,2.50767 0,2.50767 -1.622205,0 -1.622205,-2.50767 0,-2.50767 z"
           inkscape:connector-curvature="0" />
        <g
           style="fill:#ffffff"
           id="g3572"
           transform="matrix(0.3137301,-0.28690942,0.28352521,0.31002952,83.415946,419.19501)">
          <g
             style="fill:#ffffff"
             id="g3574">
            <path
               style="fill:#ffffff"
               id="path3576"
               d="m 88.469,50.2 c -0.393,-1.092 -1.606,-1.655 -2.698,-1.26 -2.071,0.753 -4.4,0.232 -5.96,-1.316 -2.196,-2.206 -2.196,-5.806 0.016,-8.019 -0.007,0.005 5.779,-5.778 5.779,-5.778 1.869,-1.871 2.899,-4.351 2.891,-6.994 0,-2.64 -1.032,-5.116 -2.891,-6.98 -3.844,-3.849 -10.116,-3.856 -13.981,-0.016 -0.005,0.01 -7.278,7.28 -10.097,10.097 l -2.285,-2.287 c -1.032,-1.032 -2.701,-1.032 -3.731,0 -1.03,1.03 -1.03,2.699 0,3.728 l 7.557,7.555 c 1.03,1.03 2.696,1.03 3.726,0 1.034,-1.032 1.034,-2.701 0,-3.731 L 64.51,32.914 74.598,22.824 c 2.217,-2.206 5.822,-2.201 8.026,0.011 1.069,1.074 1.662,2.487 1.662,3.998 0,1.516 -0.593,2.94 -1.659,4.014 L 76.84,36.63 c -3.844,3.859 -3.844,10.123 -0.01,13.974 2.717,2.706 6.787,3.61 10.383,2.301 1.091,-0.397 1.653,-1.608 1.256,-2.705 z"
               inkscape:connector-curvature="0" />
            <path
               style="fill:#ffffff"
               id="path3578"
               d="M 71.498,50.849 57.547,36.895 43.592,22.946 c -3.417,-3.433 -8.14,-5.557 -13.358,-5.557 -10.401,0 -18.832,8.432 -18.83,18.834 0,10.399 8.428,18.828 18.83,18.828 2.652,0 5.212,-0.642 7.534,-1.581 0.885,-0.358 1.943,-0.179 2.666,0.539 0.718,0.723 0.897,1.781 0.542,2.669 -0.937,2.315 -1.583,4.876 -1.583,7.533 0,10.397 8.428,18.828 18.828,18.828 10.399,0.004 18.827,-8.431 18.827,-18.828 -0.001,-5.22 -2.121,-9.946 -5.55,-13.362 l 0,0 z M 30.531,42.006 c -2.266,2.271 -5.95,2.266 -8.219,-0.004 -2.271,-2.266 -2.271,-5.946 0,-8.214 2.268,-2.266 5.953,-2.266 8.219,0 2.271,2.266 2.271,5.943 0,8.218 z M 43.518,40.61 c -0.746,0.741 -1.72,1.109 -2.706,1.109 -0.976,0 -1.957,-0.368 -2.703,-1.109 -0.751,-0.753 -1.122,-1.734 -1.122,-2.712 0,-0.983 0.372,-1.96 1.122,-2.708 0.746,-0.746 1.727,-1.12 2.703,-1.12 0.985,0 1.959,0.374 2.706,1.12 0.748,0.748 1.122,1.725 1.122,2.706 0,0.979 -0.374,1.96 -1.122,2.714 z m 22.058,27.225 c 1.027,1.023 1.027,2.696 0,3.724 -1.03,1.03 -2.696,1.03 -3.728,0 l -3.401,-3.396 -3.398,3.4 c -1.032,1.032 -2.699,1.032 -3.726,0 -1.03,-1.03 -1.03,-2.699 0,-3.726 l 3.398,-3.4 -3.398,-3.401 c -1.03,-1.027 -1.03,-2.694 0,-3.726 1.027,-1.03 2.694,-1.03 3.726,0 l 3.398,3.398 3.401,-3.398 c 1.032,-1.03 2.699,-1.03 3.728,0 1.027,1.032 1.027,2.699 0,3.726 l -3.401,3.401 3.401,3.398 z"
               inkscape:connector-curvature="0" />
          </g>
        </g>
      </g>
      <text
         inkscape:export-ydpi="29.274433"
         inkscape:export-xdpi="29.274433"
         transform="scale(0.94513162,1.0580537)"
         sodipodi:linespacing="89.999998%"
         id="text4555"
         y="452.3938"
         x="-21.169195"
         style="font-style:normal;font-variant:normal;font-weight:900;font-stretch:normal;font-size:120px;line-height:89.99999762%;font-family:Roboto;-inkscape-font-specification:'Roboto, Heavy';text-align:start;letter-spacing:0px;word-spacing:0px;writing-mode:lr-tb;text-anchor:start;fill:#ffffff;fill-opacity:1;stroke:none;stroke-width:1px;stroke-linecap:butt;stroke-linejoin:miter;stroke-opacity:1"
         xml:space="preserve"><tspan
           y="452.3938"
           x="-21.169195"
           id="tspan4381"
           sodipodi:role="line">Gamers Ranch</tspan></text>
    </g>
  </g>
</svg>
